<svg width="16" height="12" viewBox="0 0 16 12" fill="none" xmlns="http://www.w3.org/2000/svg">
<path fill-rule="evenodd" clip-rule="evenodd" d="M8.16667 3.16667C8.16667 4.91557 6.7489 6.33333 5 6.33333C3.2511 6.33333 1.83333 4.91557 1.83333 3.16667C1.83333 1.41776 3.2511 0 5 0C6.7489 0 8.16667 1.41776 8.16667 3.16667ZM8.72467 5.026C9.01537 4.44931 9.16676 3.81248 9.16667 3.16667C9.16572 2.52058 9.01319 1.88374 8.72133 1.30733C8.65764 1.1778 8.68455 1.02199 8.788 0.921333C9.37414 0.33328 10.1697 0.00190918 11 0C12.7489 0 14.1667 1.41776 14.1667 3.16667C14.1667 4.91557 12.7489 6.33333 11 6.33333C10.1709 6.33054 9.37666 5.99924 8.79133 5.412C8.68788 5.31134 8.66097 5.15553 8.72467 5.026ZM9.41533 6.92867C9.9257 6.75535 10.461 6.66685 11 6.66667C13.7602 6.66961 15.9971 8.90646 16 11.6667C16 11.8508 15.8508 12 15.6667 12H11.3333C11.1492 12 11 11.8508 11 11.6667C10.9995 10.0988 10.3824 8.59409 9.282 7.47733C9.202 7.39514 9.16989 7.27759 9.19697 7.16614C9.22406 7.05468 9.30654 6.96498 9.41533 6.92867ZM5 6.66667C7.76142 6.66667 10 8.90524 10 11.6667C10 11.8508 9.85076 12 9.66667 12H0.333333C0.149238 12 0 11.8508 0 11.6667C0 8.90524 2.23858 6.66667 5 6.66667Z" fill="#666666"/>
</svg>
