<svg width="16" height="16" viewBox="0 0 16 16" fill="none" xmlns="http://www.w3.org/2000/svg">
<g clip-path="url(#clip0_487_28112)">
<path d="M15.9073 14.5846L14.6167 11.8206C15.5825 10.1752 15.9155 8.23428 15.5534 6.36108C15.1912 4.48789 14.1588 2.81088 12.6494 1.64401C11.14 0.477136 9.25699 -0.0996052 7.35298 0.021754C5.44897 0.143113 3.65446 0.954252 2.30539 2.30332C0.956318 3.65239 0.145179 5.4469 0.0238197 7.35091C-0.0975395 9.25492 0.479202 11.1379 1.64607 12.6473C2.81295 14.1568 4.48995 15.1892 6.36315 15.5513C8.23634 15.9134 10.1773 15.5804 11.8227 14.6146L14.588 15.9046C14.7727 15.9905 14.9794 16.0175 15.18 15.982C15.3806 15.9465 15.5654 15.8502 15.7094 15.7061C15.8534 15.562 15.9496 15.3771 15.985 15.1765C16.0204 14.9759 15.9933 14.7693 15.9073 14.5846ZM13.3807 4.41127C13.3965 4.4365 13.4053 4.46553 13.4061 4.49532C13.407 4.52511 13.3998 4.55457 13.3854 4.58065C13.3709 4.60672 13.3498 4.62845 13.3241 4.64357C13.2984 4.65869 13.2691 4.66664 13.2393 4.6666H11.6727C11.6334 4.66653 11.5954 4.65258 11.5654 4.62721C11.5353 4.60183 11.5153 4.56667 11.5087 4.52793C11.3937 3.83966 11.2293 3.16056 11.0167 2.49594C11.0061 2.46349 11.0058 2.42859 11.0157 2.39595C11.0257 2.36331 11.0454 2.3345 11.0722 2.31342C11.099 2.29234 11.1317 2.28 11.1657 2.27807C11.1998 2.27613 11.2336 2.28469 11.2627 2.3026C12.1215 2.83316 12.8463 3.55477 13.3807 4.41127ZM14.3627 7.8466C14.3631 8.41903 14.2882 8.98903 14.14 9.54193C14.1306 9.57734 14.1097 9.60864 14.0807 9.63095C14.0516 9.65325 14.016 9.66532 13.9793 9.66527H11.8813C11.8583 9.66525 11.8356 9.66047 11.8145 9.65123C11.7935 9.642 11.7745 9.6285 11.7589 9.61159C11.7434 9.59468 11.7314 9.57473 11.7239 9.55299C11.7164 9.53125 11.7135 9.50819 11.7153 9.48527C11.758 8.95193 11.782 8.40327 11.782 7.8466C11.782 7.28994 11.76 6.72194 11.7153 6.17993C11.7135 6.15718 11.7164 6.13428 11.7238 6.11268C11.7311 6.09107 11.7429 6.07122 11.7583 6.05434C11.7736 6.03746 11.7923 6.02392 11.8131 6.01457C11.834 6.00521 11.8565 6.00023 11.8793 5.99993H13.97C14.0064 6.00002 14.0418 6.01198 14.0708 6.034C14.0998 6.05602 14.1208 6.08689 14.1307 6.12193C14.285 6.68382 14.363 7.26391 14.3627 7.8466ZM1.33333 7.8466C1.33312 7.26366 1.41138 6.68333 1.566 6.12127C1.57599 6.08635 1.59706 6.05562 1.62604 6.03373C1.65503 6.01185 1.69035 5.99998 1.72667 5.99993H3.81733C3.84036 5.99985 3.86316 6.00456 3.88427 6.01377C3.90538 6.02297 3.92434 6.03647 3.93995 6.0534C3.95557 6.07032 3.96749 6.09032 3.97495 6.1121C3.98242 6.13389 3.98528 6.15699 3.98333 6.17993C3.94 6.7226 3.91667 7.2806 3.91667 7.8466C3.91667 8.4126 3.93867 8.95193 3.98333 9.48527C3.98497 9.50815 3.98191 9.53113 3.97433 9.55278C3.96675 9.57443 3.95482 9.59431 3.93926 9.61117C3.92371 9.62803 3.90487 9.64153 3.8839 9.65084C3.86293 9.66014 3.84027 9.66505 3.81733 9.66527H1.71867C1.68203 9.66532 1.64641 9.65325 1.61734 9.63095C1.58828 9.60864 1.56742 9.57734 1.558 9.54193C1.4087 8.9892 1.33315 8.41915 1.33333 7.8466ZM5.25067 7.8466C5.25067 7.2706 5.276 6.70193 5.32467 6.1506C5.32865 6.10934 5.34786 6.07105 5.37855 6.04319C5.40924 6.01533 5.44922 5.99991 5.49067 5.99993H10.206C10.2476 5.99977 10.2877 6.01523 10.3185 6.04326C10.3492 6.07129 10.3683 6.10983 10.372 6.15127C10.4207 6.7026 10.446 7.27127 10.446 7.84727C10.446 8.4126 10.4213 8.97127 10.3747 9.51393C10.3709 9.55538 10.3517 9.59391 10.321 9.62201C10.2903 9.65012 10.2503 9.66578 10.2087 9.66593H5.48867C5.44696 9.66608 5.40673 9.65053 5.37597 9.62236C5.34521 9.5942 5.32618 9.55549 5.32267 9.51393C5.27533 8.97127 5.25067 8.41327 5.25067 7.8466ZM9.046 1.4466C9.07001 1.45088 9.09276 1.46047 9.11259 1.47465C9.13243 1.48884 9.14885 1.50727 9.16067 1.5286C9.63904 2.45069 9.96994 3.44205 10.1413 4.4666C10.1462 4.49081 10.1456 4.51578 10.1396 4.53972C10.1336 4.56367 10.1224 4.586 10.1068 4.60511C10.0912 4.62423 10.0716 4.63965 10.0493 4.65028C10.027 4.66091 10.0027 4.66649 9.978 4.6666H5.71933C5.6946 4.66658 5.67018 4.66108 5.64782 4.6505C5.62547 4.63991 5.60574 4.6245 5.59005 4.60537C5.57437 4.58624 5.56312 4.56388 5.55712 4.53988C5.55111 4.51589 5.55051 4.49086 5.55533 4.4666C5.72666 3.44109 6.05779 2.44881 6.53667 1.52594C6.54848 1.5046 6.5649 1.48617 6.58474 1.47199C6.60458 1.4578 6.62733 1.44822 6.65133 1.44394C7.44274 1.2964 8.2546 1.2964 9.046 1.44394V1.4466ZM4.434 2.30127C4.46309 2.28353 4.49691 2.27509 4.53092 2.27708C4.56494 2.27908 4.59753 2.29141 4.62435 2.31243C4.65117 2.33345 4.67093 2.36216 4.681 2.39471C4.69106 2.42726 4.69095 2.46211 4.68067 2.4946C4.46749 3.1593 4.30305 3.83866 4.18867 4.52727C4.18219 4.56624 4.16207 4.60165 4.13191 4.62717C4.10175 4.65269 4.06351 4.66666 4.024 4.6666H2.45733C2.42763 4.66656 2.39848 4.65859 2.3729 4.64351C2.34731 4.62843 2.32622 4.60678 2.31181 4.58081C2.2974 4.55484 2.29019 4.52549 2.29093 4.4958C2.29166 4.46611 2.30032 4.43716 2.316 4.41193C2.85035 3.55491 3.57513 2.83264 4.434 2.30127ZM2.30067 11.2526C2.28493 11.2274 2.27623 11.1985 2.27548 11.1688C2.27472 11.1392 2.28193 11.1098 2.29637 11.0839C2.3108 11.0579 2.33192 11.0364 2.35754 11.0214C2.38315 11.0064 2.41232 10.9985 2.442 10.9986H4.01933C4.05867 10.9985 4.09674 11.0124 4.12678 11.0378C4.15682 11.0632 4.17686 11.0985 4.18333 11.1373C4.29879 11.836 4.46501 12.5254 4.68067 13.1999C4.6912 13.2324 4.69153 13.2673 4.6816 13.2999C4.67167 13.3326 4.65196 13.3614 4.62513 13.3824C4.59831 13.4035 4.56566 13.4159 4.5316 13.4178C4.49754 13.4197 4.46371 13.4112 4.43467 13.3933C3.5654 12.8557 2.83355 12.1227 2.29733 11.2526H2.30067ZM6.65467 14.2526C6.63066 14.2483 6.60791 14.2387 6.58807 14.2246C6.56824 14.2104 6.55181 14.1919 6.54 14.1706C6.05648 13.2381 5.72348 12.2351 5.55333 11.1986C5.54825 11.1743 5.54868 11.1492 5.55458 11.1251C5.56048 11.101 5.57172 11.0785 5.58745 11.0593C5.60318 11.0401 5.62302 11.0247 5.6455 11.0142C5.66797 11.0037 5.69252 10.9984 5.71733 10.9986H9.984C10.0088 10.9984 10.0334 11.0037 10.0558 11.0142C10.0783 11.0247 10.0981 11.0401 10.1139 11.0593C10.1296 11.0785 10.1408 11.101 10.1468 11.1251C10.1527 11.1492 10.1531 11.1743 10.148 11.1986C9.97751 12.2351 9.64476 13.2383 9.162 14.1713C9.15011 14.1925 9.13367 14.2109 9.11384 14.2251C9.09402 14.2393 9.07131 14.2489 9.04733 14.2533C8.65265 14.3264 8.25208 14.3633 7.85067 14.3633C7.44824 14.3627 7.04674 14.3248 6.65133 14.2499L6.65467 14.2526ZM12.0627 13.2566C11.9598 13.2087 11.8464 13.1879 11.7333 13.196C11.6201 13.2042 11.5109 13.2411 11.416 13.3033C11.3653 13.3359 11.314 13.3699 11.2633 13.3999C11.2343 13.4178 11.2005 13.4264 11.1664 13.4245C11.1323 13.4225 11.0997 13.4102 11.0729 13.3891C11.046 13.368 11.0263 13.3392 11.0164 13.3066C11.0065 13.2739 11.0068 13.239 11.0173 13.2066C11.2337 12.5308 11.4004 11.8401 11.516 11.1399C11.5223 11.1011 11.5424 11.0658 11.5724 11.0403C11.6025 11.0149 11.6406 11.0011 11.68 11.0013H13.264C13.2936 11.0012 13.3227 11.009 13.3483 11.024C13.3739 11.0389 13.395 11.0604 13.4095 11.0862C13.4241 11.112 13.4315 11.1412 13.4309 11.1708C13.4304 11.2004 13.4221 11.2293 13.4067 11.2546C13.3733 11.3079 13.34 11.3613 13.306 11.4133C13.2437 11.5083 13.2067 11.6176 13.1986 11.7309C13.1904 11.8442 13.2113 11.9577 13.2593 12.0606L14.1127 13.8879C14.127 13.919 14.1315 13.9538 14.1255 13.9875C14.1196 14.0212 14.1035 14.0523 14.0793 14.0766C14.0552 14.1007 14.0241 14.1168 13.9905 14.1226C13.9569 14.1285 13.9222 14.1238 13.8913 14.1093L12.0627 13.2566Z" fill="#9F9F9F"/>
</g>
<defs>
<clipPath id="clip0_487_28112">
<rect width="16" height="16" fill="white"/>
</clipPath>
</defs>
</svg>
