<svg width="24" height="24" viewBox="0 0 24 24" fill="none" xmlns="http://www.w3.org/2000/svg">
<path fill-rule="evenodd" clip-rule="evenodd" d="M5.45537 16.4347C6.11344 16.4349 6.74456 16.1736 7.20983 15.7083C7.67511 15.243 7.93642 14.6119 7.93627 13.9538L7.93621 13.4135C10.6393 13.1772 13.3579 13.1778 16.061 13.4151L16.0604 13.9561C16.0608 15.326 17.1713 16.4365 18.5411 16.4369L21.5184 16.4365C22.1767 16.4368 22.8081 16.1755 23.2736 15.71C23.739 15.2446 24.0003 14.6132 24 13.9549L23.9998 12.3228C23.9926 10.6763 22.8338 9.25942 21.2215 8.92558C15.1347 7.69333 8.86317 7.69146 2.77621 8.92007C1.17 9.26412 0.0169407 10.6754 0 12.318L0.000178168 13.953C0.000920753 15.3223 1.11092 16.4323 2.48021 16.433L5.45537 16.4347Z" fill="#666666"/>
</svg>
