<svg width="24" height="24" viewBox="0 0 24 24" fill="none" xmlns="http://www.w3.org/2000/svg">
<g clip-path="url(#clip0_487_28011)">
<path d="M3.09641e-07 23.0002C3.09641e-07 23.2654 0.105357 23.5197 0.292894 23.7073C0.48043 23.8948 0.734784 24.0002 1 24.0002H6C6.19775 24.0001 6.39105 23.9415 6.55546 23.8316C6.71987 23.7217 6.84801 23.5655 6.92368 23.3828C6.99935 23.2001 7.01915 22.9991 6.98058 22.8051C6.94202 22.6112 6.84681 22.433 6.707 22.2932L5.268 20.8532C5.24475 20.83 5.2263 20.8025 5.21371 20.7722C5.20112 20.7419 5.19464 20.7095 5.19464 20.6767C5.19464 20.6439 5.20112 20.6114 5.21371 20.5811C5.2263 20.5508 5.24475 20.5233 5.268 20.5002L9.384 16.3842C9.61845 16.1497 9.75016 15.8317 9.75016 15.5002C9.75016 15.1686 9.61845 14.8506 9.384 14.6162C9.14955 14.3817 8.83156 14.25 8.5 14.25C8.16844 14.25 7.85045 14.3817 7.616 14.6162L3.5 18.7312C3.47678 18.7544 3.44919 18.7729 3.41882 18.7855C3.38844 18.7981 3.35588 18.8046 3.323 18.8046C3.29012 18.8046 3.25756 18.7981 3.22718 18.7855C3.19681 18.7729 3.16922 18.7544 3.146 18.7312L1.707 17.2922C1.56709 17.1523 1.38883 17.0571 1.19479 17.0185C1.00074 16.98 0.799624 16.9999 0.616884 17.0757C0.434143 17.1515 0.27799 17.2798 0.168182 17.4443C0.0583736 17.6089 -0.00015534 17.8023 3.09641e-07 18.0002V23.0002Z" fill="black"/>
<path d="M24 1C24 0.734784 23.8946 0.48043 23.7071 0.292893C23.5196 0.105357 23.2652 0 23 0L18 0C17.8022 4.22243e-05 17.6089 0.0587141 17.4445 0.168598C17.2801 0.278483 17.152 0.434646 17.0763 0.617345C17.0006 0.800045 16.9808 1.00108 17.0194 1.19503C17.058 1.38898 17.1532 1.56715 17.293 1.707L18.732 3.146C18.7553 3.16922 18.7737 3.19681 18.7864 3.22718C18.799 3.25756 18.8054 3.29012 18.8054 3.323C18.8054 3.35588 18.799 3.38844 18.7864 3.41882C18.7737 3.44919 18.7553 3.47678 18.732 3.5L14.616 7.615C14.3815 7.84945 14.2498 8.16744 14.2498 8.499C14.2498 8.83056 14.3815 9.14855 14.616 9.383C14.8504 9.61745 15.1684 9.74916 15.5 9.74916C15.8316 9.74916 16.1495 9.61745 16.384 9.383L20.5 5.267C20.5232 5.24372 20.5508 5.22525 20.5812 5.21264C20.6116 5.20004 20.6441 5.19355 20.677 5.19355C20.7099 5.19355 20.7424 5.20004 20.7728 5.21264C20.8032 5.22525 20.8308 5.24372 20.854 5.267L22.293 6.706C22.3858 6.79905 22.4959 6.8729 22.6172 6.92335C22.7386 6.97379 22.8686 6.99984 23 7C23.1315 7.00042 23.2617 6.97459 23.383 6.924C23.5657 6.84826 23.7218 6.72004 23.8316 6.55557C23.9415 6.39111 24 6.19777 24 6V1Z" fill="black"/>
</g>
<defs>
<clipPath id="clip0_487_28011">
<rect width="24" height="24" fill="white"/>
</clipPath>
</defs>
</svg>
