<svg width="16" height="16" viewBox="0 0 16 16" fill="none" xmlns="http://www.w3.org/2000/svg">
<path d="M7.82811 10.1053C9.22601 10.1053 10.3544 8.97684 10.3544 7.57895V2.52632C10.3544 1.12842 9.22601 0 7.82811 0C6.43022 0 5.3018 1.12842 5.3018 2.52632V7.57895C5.3018 8.97684 6.43022 10.1053 7.82811 10.1053ZM12.805 7.57895C12.3923 7.57895 12.0471 7.88211 11.9797 8.29474C11.6344 10.2737 9.90811 11.7895 7.82811 11.7895C5.74811 11.7895 4.0218 10.2737 3.67653 8.29474C3.60917 7.88211 3.2639 7.57895 2.85127 7.57895C2.33759 7.57895 1.93338 8.03368 2.00917 8.53895C2.4218 11.0653 4.44285 13.0442 6.98601 13.4063V15.1579C6.98601 15.6211 7.36496 16 7.82811 16C8.29127 16 8.67022 15.6211 8.67022 15.1579V13.4063C11.2134 13.0442 13.2344 11.0653 13.6471 8.53895C13.7313 8.03368 13.3186 7.57895 12.805 7.57895Z" fill="#0098FF"/>
</svg>
