<svg width="16" height="16" viewBox="0 0 16 16" fill="none" xmlns="http://www.w3.org/2000/svg">
<path d="M10.4203 7.24211V2.52632C10.4203 1.12842 9.29192 0 7.89402 0C6.59718 0 5.54455 0.976842 5.40139 2.23158L10.4203 7.24211ZM13.014 7.57895C12.6688 7.57895 12.3656 7.83158 12.3151 8.17684C12.273 8.44632 12.214 8.71579 12.1298 8.96L13.1993 10.0295C13.4519 9.52421 13.6372 8.97684 13.7298 8.39579C13.7888 7.96632 13.4519 7.57895 13.014 7.57895ZM0.912972 1.31368C0.584551 1.64211 0.584551 2.17263 0.912972 2.50105L5.36771 6.96421V7.32632C5.36771 8.32842 5.87297 9.28 6.74034 9.77684C7.37192 10.1389 7.92771 10.1474 8.44139 10.0379L9.83929 11.4358C9.24139 11.7137 8.57613 11.8737 7.89402 11.8737C5.75508 11.8737 3.78455 10.3832 3.47297 8.17684C3.42245 7.83158 3.11929 7.57895 2.77402 7.57895C2.33613 7.57895 1.99929 7.96632 2.05824 8.39579C2.4456 10.8884 4.55087 12.8589 7.05192 13.2379V15.1579C7.05192 15.6211 7.43087 16 7.89402 16C8.35718 16 8.73613 15.6211 8.73613 15.1579V13.2379C9.50245 13.1284 10.2267 12.8589 10.8835 12.48L13.8224 15.4189C14.1509 15.7474 14.6814 15.7474 15.0098 15.4189C15.3382 15.0905 15.3382 14.56 15.0098 14.2316L2.10034 1.31368C2.02244 1.23561 1.9299 1.17366 1.82803 1.1314C1.72616 1.08914 1.61695 1.06738 1.50666 1.06738C1.39636 1.06738 1.28715 1.08914 1.18528 1.1314C1.08341 1.17366 0.990873 1.23561 0.912972 1.31368Z" fill="#9F9F9F"/>
</svg>
