<svg width="16" height="16" viewBox="0 0 16 16" fill="none" xmlns="http://www.w3.org/2000/svg">
<path fill-rule="evenodd" clip-rule="evenodd" d="M15 0H1C0.447715 0 0 0.447715 0 1V12C0 12.5523 0.447715 13 1 13H7.16667C7.25871 13 7.33333 13.0746 7.33333 13.1667V14.5C7.33333 14.592 7.25871 14.6667 7.16667 14.6667H5C4.63181 14.6667 4.33333 14.9651 4.33333 15.3333C4.33333 15.7015 4.63181 16 5 16H11C11.3682 16 11.6667 15.7015 11.6667 15.3333C11.6667 14.9651 11.3682 14.6667 11 14.6667H8.83333C8.74129 14.6667 8.66667 14.592 8.66667 14.5V13.1667C8.66667 13.0746 8.74129 13 8.83333 13H15C15.5523 13 16 12.5523 16 12V1C16 0.447715 15.5523 0 15 0ZM14.6667 10C14.6667 10.1841 14.5174 10.3333 14.3333 10.3333H1.66667C1.48257 10.3333 1.33333 10.1841 1.33333 10V1.66667C1.33333 1.48257 1.48257 1.33333 1.66667 1.33333H14.3333C14.5174 1.33333 14.6667 1.48257 14.6667 1.66667V10Z" fill="#9F9F9F"/>
</svg>
