<svg width="24" height="24" viewBox="0 0 24 24" fill="none" xmlns="http://www.w3.org/2000/svg">
<path d="M0.616002 23.383C0.850562 23.6172 1.16851 23.7488 1.5 23.7488C1.8315 23.7488 2.14944 23.6172 2.384 23.383L6.5 19.267C6.52323 19.2437 6.55081 19.2252 6.58119 19.2126C6.61156 19.2 6.64412 19.1936 6.677 19.1936C6.70989 19.1936 6.74245 19.2 6.77282 19.2126C6.80319 19.2252 6.83078 19.2437 6.854 19.267L8.293 20.706C8.38576 20.799 8.49594 20.8729 8.61725 20.9233C8.73856 20.9738 8.86862 20.9998 9 21C9.13146 21.0004 9.26167 20.9746 9.383 20.924C9.56569 20.8483 9.72181 20.72 9.83164 20.5556C9.94146 20.3911 10.0001 20.1978 10 20V15C10 14.7348 9.89464 14.4804 9.70711 14.2929C9.51957 14.1054 9.26522 14 9 14H4C3.80225 14 3.60895 14.0587 3.44454 14.1686C3.28013 14.2785 3.15199 14.4346 3.07632 14.6173C3.00065 14.8 2.98085 15.0011 3.01942 15.195C3.05799 15.389 3.15319 15.5671 3.293 15.707L4.732 17.146C4.75528 17.1692 4.77376 17.1968 4.78636 17.2272C4.79896 17.2576 4.80545 17.2901 4.80545 17.323C4.80545 17.3559 4.79896 17.3884 4.78636 17.4188C4.77376 17.4492 4.75528 17.4768 4.732 17.5L0.616002 21.615C0.381755 21.8496 0.250183 22.1675 0.250183 22.499C0.250183 22.8305 0.381755 23.1484 0.616002 23.383Z" fill="black"/>
<path d="M23.384 0.614843C23.1494 0.380596 22.8315 0.249023 22.5 0.249023C22.1685 0.249023 21.8506 0.380596 21.616 0.614843L17.5 4.73084C17.4768 4.75412 17.4492 4.7726 17.4188 4.7852C17.3884 4.7978 17.3559 4.80429 17.323 4.80429C17.2901 4.80429 17.2576 4.7978 17.2272 4.7852C17.1968 4.7726 17.1692 4.75412 17.146 4.73084L15.707 3.29184C15.5671 3.15197 15.3888 3.05675 15.1948 3.01821C15.0007 2.97967 14.7996 2.99956 14.6169 3.07536C14.4341 3.15115 14.278 3.27944 14.1682 3.44401C14.0584 3.60857 13.9998 3.80201 14 3.99984V8.99984C14 9.26506 14.1054 9.51941 14.2929 9.70695C14.4804 9.89449 14.7348 9.99984 15 9.99984H20C20.1978 9.9998 20.391 9.94113 20.5555 9.83124C20.7199 9.72136 20.848 9.5652 20.9237 9.3825C20.9993 9.1998 21.0192 8.99876 20.9806 8.80481C20.942 8.61086 20.8468 8.43269 20.707 8.29284L19.268 6.85284C19.2447 6.82971 19.2263 6.8022 19.2137 6.77191C19.2011 6.74162 19.1946 6.70914 19.1946 6.67634C19.1946 6.64354 19.2011 6.61106 19.2137 6.58077C19.2263 6.55048 19.2447 6.52298 19.268 6.49984L23.384 2.38384C23.6186 2.14924 23.7503 1.83108 23.7503 1.49934C23.7503 1.1676 23.6186 0.849443 23.384 0.614843Z" fill="black"/>
</svg>
