<svg width="20" height="20" viewBox="0 0 20 20" fill="none" xmlns="http://www.w3.org/2000/svg">
<path fill-rule="evenodd" clip-rule="evenodd" d="M16.9428 12.1696C16.4938 11.7204 15.8847 11.468 15.2496 11.468C14.6146 11.468 14.0055 11.7204 13.5565 12.1696L13.1878 12.5384C11.1818 10.8549 9.32678 8.99917 7.64399 6.99241L8.01364 6.62363C8.94826 5.68852 8.94826 4.17271 8.01364 3.2376L5.98151 1.20598C5.53246 0.756471 4.92321 0.503906 4.2879 0.503906C3.6526 0.503906 3.04334 0.756471 2.5943 1.20598L1.48055 2.31997C0.361845 3.44855 0.185703 5.20636 1.05823 6.53455C4.37126 11.5295 8.65009 15.8109 13.6427 19.1266C14.9737 19.9879 16.7238 19.8117 17.8564 18.7022L18.972 17.5863C19.906 16.6513 19.906 15.1362 18.972 14.2013L16.9428 12.1696Z" fill="#666666"/>
</svg>
