<svg width="16" height="18" viewBox="0 0 16 18" fill="none" xmlns="http://www.w3.org/2000/svg">
<path opacity="0.289597" fill-rule="evenodd" clip-rule="evenodd" d="M4.71094 1.41959C4.71094 0.868278 5.24623 0.474271 5.77496 0.636403L14.8194 3.40982C15.1644 3.51561 15.3998 3.83327 15.3998 4.193V11.9017C15.3998 12.453 14.8645 12.847 14.3358 12.6848L5.29136 9.91142C4.94636 9.80563 4.71094 9.48797 4.71094 9.12824V1.41959Z" fill="#3DBD86"/>
<path opacity="0.800316" fill-rule="evenodd" clip-rule="evenodd" d="M2.65527 2.73111C2.65527 2.1798 3.19057 1.78579 3.7193 1.94793L12.7637 4.72134C13.1087 4.82713 13.3442 5.1448 13.3442 5.50453V13.2132C13.3442 13.7645 12.8089 14.1585 12.2801 13.9964L3.23569 11.2229C2.89069 11.1172 2.65527 10.7995 2.65527 10.4398V2.73111Z" fill="#83D5B1"/>
<path fill-rule="evenodd" clip-rule="evenodd" d="M0.599609 4.36978C0.599609 3.81847 1.1349 3.42447 1.66364 3.5866L10.7081 6.36001C11.0531 6.46581 11.2885 6.78347 11.2885 7.1432V14.8547C11.2885 15.4052 10.7548 15.7991 10.2264 15.6385L7.79405 14.8993V16.9894C7.79405 17.3868 7.28334 17.5515 7.04975 17.2294L4.78961 14.113C4.73836 14.0424 4.66582 13.9898 4.58254 13.9631L1.16958 12.8667C0.829877 12.7576 0.599609 12.4425 0.599609 12.0868V4.36978Z" fill="#3DBD86"/>
<path fill-rule="evenodd" clip-rule="evenodd" d="M7.02168 8.07027C7.02168 7.8798 6.86474 7.6801 6.67115 7.62423L2.8974 6.53513C2.70381 6.47926 2.54688 6.58838 2.54688 6.77886V10.5726C2.54688 10.7631 2.70381 10.9628 2.8974 11.0186L6.67115 12.1077C6.86474 12.1636 7.02168 12.0545 7.02168 11.864V11.1044L8.70335 12.4673C8.74958 12.5075 8.80452 12.5205 8.84853 12.5018C8.89254 12.4831 8.91933 12.4353 8.91933 12.3755V8.68234C8.91941 8.62253 8.89265 8.5592 8.84863 8.51502C8.80462 8.47082 8.74963 8.45208 8.70335 8.4655L7.02168 8.95226V8.07027Z" fill="white"/>
</svg>
