<svg width="261" height="242" viewBox="0 0 261 242" fill="none" xmlns="http://www.w3.org/2000/svg">
<path d="M30.7845 157.917H31.554V158.687V191.139L62.511 158.16L62.739 157.917H63.0721L167.267 157.917C170.711 157.917 173.503 155.126 173.503 151.682V41.0051C173.503 37.5613 170.711 34.7695 167.267 34.7695H7.73209C4.28827 34.7695 1.49651 37.5613 1.49651 41.0051V151.682C1.49651 155.126 4.28827 157.917 7.73209 157.917L30.7845 157.917Z" fill="#282828" stroke="#4C4C4C" stroke-width="1.539"/>
<mask id="path-2-inside-1_2056_4868" fill="white">
<path fill-rule="evenodd" clip-rule="evenodd" d="M158.738 111.636L146.598 130.518L212.683 173.007C215.29 174.684 218.762 173.929 220.439 171.322L226.509 161.881C228.185 159.274 227.43 155.802 224.823 154.126L158.738 111.636ZM217.573 162.808C218.83 160.853 218.264 158.249 216.309 156.992C214.353 155.734 211.749 156.3 210.492 158.256C209.235 160.211 209.801 162.815 211.756 164.072C213.711 165.329 216.316 164.763 217.573 162.808Z"/>
</mask>
<path fill-rule="evenodd" clip-rule="evenodd" d="M158.738 111.636L146.598 130.518L212.683 173.007C215.29 174.684 218.762 173.929 220.439 171.322L226.509 161.881C228.185 159.274 227.43 155.802 224.823 154.126L158.738 111.636ZM217.573 162.808C218.83 160.853 218.264 158.249 216.309 156.992C214.353 155.734 211.749 156.3 210.492 158.256C209.235 160.211 209.801 162.815 211.756 164.072C213.711 165.329 216.316 164.763 217.573 162.808Z" fill="#7C7C7C"/>
<path d="M146.598 130.518L145.418 129.759L144.659 130.939L145.839 131.698L146.598 130.518ZM158.738 111.636L159.496 110.456L158.316 109.697L157.558 110.877L158.738 111.636ZM212.683 173.007L211.924 174.187L212.683 173.007ZM147.778 131.276L159.918 112.395L157.558 110.877L145.418 129.759L147.778 131.276ZM213.442 171.827L147.356 129.337L145.839 131.698L211.924 174.187L213.442 171.827ZM219.259 170.563C218.001 172.518 215.397 173.084 213.442 171.827L211.924 174.187C215.183 176.283 219.524 175.339 221.619 172.081L219.259 170.563ZM225.329 161.122L219.259 170.563L221.619 172.081L227.689 162.64L225.329 161.122ZM224.064 155.306C226.02 156.563 226.586 159.167 225.329 161.122L227.689 162.64C229.784 159.381 228.841 155.041 225.582 152.946L224.064 155.306ZM157.979 112.816L224.064 155.306L225.582 152.946L159.496 110.456L157.979 112.816ZM215.55 158.172C216.853 159.01 217.231 160.746 216.393 162.049L218.753 163.567C220.429 160.96 219.674 157.488 217.067 155.811L215.55 158.172ZM211.672 159.014C212.51 157.711 214.246 157.334 215.55 158.172L217.067 155.811C214.46 154.135 210.988 154.89 209.312 157.497L211.672 159.014ZM212.515 162.892C211.211 162.054 210.834 160.318 211.672 159.014L209.312 157.497C207.636 160.104 208.39 163.576 210.997 165.252L212.515 162.892ZM216.393 162.049C215.554 163.353 213.818 163.73 212.515 162.892L210.997 165.252C213.604 166.928 217.077 166.174 218.753 163.567L216.393 162.049Z" fill="#4C4C4C" mask="url(#path-2-inside-1_2056_4868)"/>
<circle cx="111.003" cy="95.0031" r="68.0442" transform="rotate(-57.261 111.003 95.0031)" fill="#7C7C7C" stroke="#4C4C4C" stroke-width="1.40297"/>
<circle cx="111.128" cy="94.9767" r="51.2985" transform="rotate(-57.261 111.128 94.9767)" fill="#EAEAEA" stroke="#4C4C4C" stroke-width="1.40297"/>
<path fill-rule="evenodd" clip-rule="evenodd" d="M121.016 67.679L133.649 80.3117C134.087 80.7492 134.333 81.3425 134.333 81.9613L134.333 118.333C134.333 120.911 132.243 123 129.666 123L92.3327 123C89.7554 123 87.666 120.911 87.666 118.333L87.666 71.6667C87.666 69.0893 89.7554 67 92.3327 67L119.367 67C119.985 66.9989 120.578 67.2431 121.016 67.679ZM128.499 118.333C129.144 118.333 129.666 117.811 129.666 117.167L129.666 83.9167C129.666 83.5945 129.405 83.3333 129.083 83.3333L122.666 83.3333C120.089 83.3333 117.999 81.244 117.999 78.6667L117.999 72.25C117.999 71.9278 117.738 71.6667 117.416 71.6667L93.4993 71.6667C92.855 71.6667 92.3327 72.189 92.3327 72.8333L92.3327 117.167C92.3327 117.811 92.855 118.333 93.4993 118.333L128.499 118.333ZM98.1663 92.6621C98.1663 92.0178 98.6887 91.4954 99.333 91.4954L104 91.4954C104.644 91.4954 105.166 92.0178 105.166 92.6621L105.166 94.9954C105.166 95.6398 104.644 96.1621 104 96.1621L99.333 96.1621C98.6887 96.1621 98.1663 95.6398 98.1663 94.9954L98.1663 92.6621ZM99.333 99.6621C98.6887 99.6621 98.1663 100.184 98.1663 100.829L98.1663 103.162C98.1663 103.806 98.6887 104.329 99.333 104.329L104 104.329C104.644 104.329 105.166 103.806 105.166 103.162L105.166 100.829C105.166 100.184 104.644 99.6621 104 99.6621L99.333 99.6621ZM98.1663 108.995C98.1663 108.351 98.6887 107.829 99.333 107.829L104 107.829C104.644 107.829 105.166 108.351 105.166 108.995L105.166 111.329C105.166 111.973 104.644 112.495 104 112.495L99.333 112.495C98.6887 112.495 98.1663 111.973 98.1663 111.329L98.1663 108.995ZM109.833 91.4954C109.189 91.4954 108.666 92.0178 108.666 92.6621L108.666 94.9954C108.666 95.6398 109.189 96.1621 109.833 96.1621L122.666 96.1621C123.311 96.1621 123.833 95.6398 123.833 94.9954L123.833 92.6621C123.833 92.0178 123.311 91.4954 122.666 91.4954L109.833 91.4954ZM108.666 100.829C108.666 100.184 109.189 99.6621 109.833 99.6621L122.666 99.6621C123.311 99.6621 123.833 100.184 123.833 100.829L123.833 103.162C123.833 103.806 123.311 104.329 122.666 104.329L109.833 104.329C109.189 104.329 108.666 103.806 108.666 103.162L108.666 100.829ZM109.833 107.829C109.189 107.829 108.666 108.351 108.666 108.995L108.666 111.329C108.666 111.973 109.189 112.495 109.833 112.495L122.666 112.495C123.311 112.495 123.833 111.973 123.833 111.329L123.833 108.995C123.833 108.351 123.311 107.829 122.666 107.829L109.833 107.829Z" fill="#0088B2"/>
<mask id="mask0_2056_4868" style="mask-type:luminance" maskUnits="userSpaceOnUse" x="87" y="67" width="48" height="56">
<path fill-rule="evenodd" clip-rule="evenodd" d="M121.016 67.679L133.649 80.3117C134.087 80.7492 134.333 81.3425 134.333 81.9613L134.333 118.333C134.333 120.911 132.243 123 129.666 123L92.3327 123C89.7554 123 87.666 120.911 87.666 118.333L87.666 71.6667C87.666 69.0893 89.7554 67 92.3327 67L119.367 67C119.985 66.9989 120.578 67.2431 121.016 67.679ZM128.499 118.333C129.144 118.333 129.666 117.811 129.666 117.167L129.666 83.9167C129.666 83.5945 129.405 83.3333 129.083 83.3333L122.666 83.3333C120.089 83.3333 117.999 81.244 117.999 78.6667L117.999 72.25C117.999 71.9278 117.738 71.6667 117.416 71.6667L93.4993 71.6667C92.855 71.6667 92.3327 72.189 92.3327 72.8333L92.3327 117.167C92.3327 117.811 92.855 118.333 93.4993 118.333L128.499 118.333ZM98.1663 92.6621C98.1663 92.0178 98.6887 91.4954 99.333 91.4954L104 91.4954C104.644 91.4954 105.166 92.0178 105.166 92.6621L105.166 94.9954C105.166 95.6398 104.644 96.1621 104 96.1621L99.333 96.1621C98.6887 96.1621 98.1663 95.6398 98.1663 94.9954L98.1663 92.6621ZM99.333 99.6621C98.6887 99.6621 98.1663 100.184 98.1663 100.829L98.1663 103.162C98.1663 103.806 98.6887 104.329 99.333 104.329L104 104.329C104.644 104.329 105.166 103.806 105.166 103.162L105.166 100.829C105.166 100.184 104.644 99.6621 104 99.6621L99.333 99.6621ZM98.1663 108.995C98.1663 108.351 98.6887 107.829 99.333 107.829L104 107.829C104.644 107.829 105.166 108.351 105.166 108.995L105.166 111.329C105.166 111.973 104.644 112.495 104 112.495L99.333 112.495C98.6887 112.495 98.1663 111.973 98.1663 111.329L98.1663 108.995ZM109.833 91.4954C109.189 91.4954 108.666 92.0178 108.666 92.6621L108.666 94.9954C108.666 95.6398 109.189 96.1621 109.833 96.1621L122.666 96.1621C123.311 96.1621 123.833 95.6398 123.833 94.9954L123.833 92.6621C123.833 92.0178 123.311 91.4954 122.666 91.4954L109.833 91.4954ZM108.666 100.829C108.666 100.184 109.189 99.6621 109.833 99.6621L122.666 99.6621C123.311 99.6621 123.833 100.184 123.833 100.829L123.833 103.162C123.833 103.806 123.311 104.329 122.666 104.329L109.833 104.329C109.189 104.329 108.666 103.806 108.666 103.162L108.666 100.829ZM109.833 107.829C109.189 107.829 108.666 108.351 108.666 108.995L108.666 111.329C108.666 111.973 109.189 112.495 109.833 112.495L122.666 112.495C123.311 112.495 123.833 111.973 123.833 111.329L123.833 108.995C123.833 108.351 123.311 107.829 122.666 107.829L109.833 107.829Z" fill="white"/>
</mask>
<g mask="url(#mask0_2056_4868)">
</g>
<path d="M126.433 241.695C191.842 241.695 244.866 235.495 244.866 227.847C244.866 220.2 191.842 214 126.433 214C61.0243 214 8 220.2 8 227.847C8 235.495 61.0243 241.695 126.433 241.695Z" fill="#282828"/>
</svg>
