<svg width="16" height="16" viewBox="0 0 16 16" fill="none" xmlns="http://www.w3.org/2000/svg">
<path d="M16 10.2742V5.71935C16 4.95303 15.0701 4.56557 14.5276 5.10802L12.5559 7.08838V4.07479C12.5559 3.60123 12.1684 3.21376 11.6949 3.21376H6.86452L14.5363 10.8855C15.0701 11.4279 16 11.0405 16 10.2742ZM0.25185 0.251837C-0.0839499 0.587637 -0.0839499 1.13008 0.25185 1.46588L1.99112 3.21376H1.36257C0.889008 3.21376 0.501547 3.60123 0.501547 4.07479V12.685C0.501547 13.1586 0.889008 13.5461 1.36257 13.5461H11.6949C11.8757 13.5461 12.0307 13.4772 12.1684 13.3911L14.3038 15.5264C14.6396 15.8622 15.182 15.8622 15.5178 15.5264C15.8536 15.1906 15.8536 14.6482 15.5178 14.3124L1.4659 0.251837C1.38624 0.172007 1.29163 0.108672 1.18747 0.0654576C1.08331 0.0222436 0.971643 0 0.858873 0C0.746102 0 0.634439 0.0222436 0.530277 0.0654576C0.426116 0.108672 0.331501 0.172007 0.25185 0.251837Z" fill="#9F9F9F"/>
</svg>
