<svg width="16" height="14" viewBox="0 0 16 14" fill="none" xmlns="http://www.w3.org/2000/svg">
<path d="M16 10.9167C16 10.8283 15.9649 10.7435 15.9024 10.681C15.8399 10.6185 15.7551 10.5833 15.6667 10.5833H15.5C15.4116 10.5833 15.3268 10.5482 15.2643 10.4857C15.2018 10.4232 15.1667 10.3384 15.1667 10.25V2.41667C15.1667 1.97464 14.9911 1.55072 14.6785 1.23816C14.366 0.925595 13.942 0.75 13.5 0.75H2.5C2.05797 0.75 1.63405 0.925595 1.32149 1.23816C1.00893 1.55072 0.833333 1.97464 0.833333 2.41667V10.25C0.833333 10.3384 0.798214 10.4232 0.735702 10.4857C0.67319 10.5482 0.588405 10.5833 0.5 10.5833H0.333333C0.244928 10.5833 0.160143 10.6185 0.0976311 10.681C0.035119 10.7435 0 10.8283 0 10.9167C0 11.5355 0.245833 12.129 0.683417 12.5666C1.121 13.0042 1.71449 13.25 2.33333 13.25H13.6667C14.2855 13.25 14.879 13.0042 15.3166 12.5666C15.7542 12.129 16 11.5355 16 10.9167ZM2.16667 2.41667C2.16667 2.32826 2.20179 2.24348 2.2643 2.18096C2.32681 2.11845 2.41159 2.08333 2.5 2.08333H13.5C13.5884 2.08333 13.6732 2.11845 13.7357 2.18096C13.7982 2.24348 13.8333 2.32826 13.8333 2.41667V10.25C13.8333 10.3384 13.7982 10.4232 13.7357 10.4857C13.6732 10.5482 13.5884 10.5833 13.5 10.5833H2.5C2.41159 10.5833 2.32681 10.5482 2.2643 10.4857C2.20179 10.4232 2.16667 10.3384 2.16667 10.25V2.41667Z" fill="white"/>
</svg>
