<svg width="317" height="296" viewBox="0 0 317 296" fill="none" xmlns="http://www.w3.org/2000/svg">
<g filter="url(#filter0_d_3128_53164)">
<rect x="7" y="71.1836" width="57.5468" height="57.5468" rx="6.77021" fill="white"/>
<path opacity="0.289597" fill-rule="evenodd" clip-rule="evenodd" d="M29.0938 84.5619C29.0938 83.4422 30.181 82.6419 31.2549 82.9712L49.6247 88.6042C50.3254 88.8191 50.8036 89.4643 50.8036 90.1949V105.852C50.8036 106.971 49.7163 107.772 48.6425 107.442L30.2726 101.809C29.5719 101.594 29.0938 100.949 29.0938 100.219V84.5619Z" fill="#3DBD86"/>
<path opacity="0.800316" fill-rule="evenodd" clip-rule="evenodd" d="M24.9189 87.224C24.9189 86.1043 26.0062 85.304 27.08 85.6333L45.4499 91.2663C46.1506 91.4812 46.6288 92.1264 46.6288 92.857V108.514C46.6288 109.634 45.5415 110.434 44.4677 110.104L26.0978 104.471C25.3971 104.257 24.9189 103.611 24.9189 102.881V87.224Z" fill="#83D5B1"/>
<path fill-rule="evenodd" clip-rule="evenodd" d="M20.7441 90.5541C20.7441 89.4344 21.8314 88.6341 22.9052 88.9634L41.2751 94.5964C41.9758 94.8113 42.454 95.4564 42.454 96.1871V111.85C42.454 112.968 41.3699 113.768 40.2968 113.442L35.3565 111.94V116.185C35.3565 116.993 34.3192 117.327 33.8448 116.673L29.2543 110.343C29.1502 110.2 29.0029 110.093 28.8337 110.039L21.9018 107.812C21.2118 107.59 20.7441 106.95 20.7441 106.228V90.5541Z" fill="#3DBD86"/>
<path fill-rule="evenodd" clip-rule="evenodd" d="M33.7878 98.0695C33.7878 97.6827 33.4691 97.2771 33.0759 97.1636L25.4112 94.9516C25.018 94.8381 24.6992 95.0597 24.6992 95.4466V103.152C24.6992 103.539 25.018 103.944 25.4112 104.058L33.0759 106.27C33.4691 106.383 33.7878 106.162 33.7878 105.775V104.232L37.2034 107C37.2973 107.082 37.4089 107.108 37.4983 107.07C37.5877 107.032 37.6421 106.935 37.6421 106.814V99.3127C37.6422 99.1912 37.5879 99.0626 37.4985 98.9729C37.4091 98.8831 37.2974 98.845 37.2034 98.8723L33.7878 99.8609V98.0695Z" fill="white"/>
</g>
<g filter="url(#filter1_d_3128_53164)">
<rect x="20.5615" y="157.121" width="55.0117" height="55.0117" rx="6.47196" fill="white"/>
<path opacity="0.50372" fill-rule="evenodd" clip-rule="evenodd" d="M41.5117 169.939C41.5117 168.847 42.5791 168.066 43.6335 168.387L61.6687 173.882C62.3566 174.091 62.826 174.721 62.826 175.433V193.14C62.826 194.232 61.7586 195.013 60.7043 194.692L42.6691 189.197C41.9812 188.988 41.5117 188.358 41.5117 187.646V169.939Z" fill="#C2F1F9"/>
<path opacity="0.8" fill-rule="evenodd" clip-rule="evenodd" d="M37.4121 173.023C37.4121 171.931 38.4795 171.15 39.5338 171.471L57.569 176.966C58.257 177.175 58.7264 177.805 58.7264 178.517V196.224C58.7264 197.316 57.659 198.097 56.6047 197.776L38.5695 192.281C37.8816 192.072 37.4121 191.442 37.4121 190.73V173.023Z" fill="#8AE3F3"/>
<path fill-rule="evenodd" clip-rule="evenodd" d="M33.3135 176.109C33.3135 175.017 34.3809 174.236 35.4352 174.557L53.4704 180.052C54.1584 180.261 54.6278 180.891 54.6278 181.603V199.31C54.6278 200.402 53.5604 201.183 52.5061 200.861L34.4709 195.367C33.7829 195.157 33.3135 194.528 33.3135 193.815V176.109Z" fill="#36D0EB"/>
<path fill-rule="evenodd" clip-rule="evenodd" d="M39.1549 191.205L44.2657 192.773V192.112L39.9787 190.81L42.2539 188.526C42.8517 187.914 43.2692 187.378 43.5064 186.919C43.7436 186.459 43.8623 186.007 43.8623 185.562C43.8623 184.774 43.6521 184.095 43.2318 183.527C42.8115 182.961 42.2278 182.58 41.4806 182.385C40.9911 182.257 40.555 182.266 40.172 182.411C39.7891 182.556 39.494 182.816 39.2866 183.191C39.0793 183.565 38.9756 184.014 38.9756 184.537L39.6425 184.721C39.6425 184.081 39.8115 183.605 40.1496 183.294C40.4877 182.982 40.9314 182.898 41.4806 183.044C42.0111 183.184 42.4276 183.469 42.7303 183.898C43.0329 184.328 43.1842 184.843 43.1842 185.442C43.1842 185.824 43.0945 186.192 42.9152 186.545C42.7757 186.82 42.5503 187.135 42.2391 187.49L41.9513 187.804L39.1549 190.617V191.205ZM47.9644 193.908L48.6368 194.115V184.359L48.5248 184.33L45.7452 184.813V185.551L47.9644 185.174V193.908Z" fill="white"/>
<path fill-rule="evenodd" clip-rule="evenodd" d="M41.1291 190.522L42.6923 188.952L42.6923 188.952L42.6962 188.948C43.313 188.318 43.7774 187.732 44.0543 187.196L44.0546 187.195C44.3288 186.664 44.4777 186.117 44.4777 185.562C44.4777 184.661 44.2351 183.852 43.7284 183.167L43.7279 183.166C43.2167 182.477 42.5081 182.023 41.6384 181.796C41.0536 181.642 40.4817 181.641 39.9528 181.842C39.426 182.041 39.0212 182.404 38.748 182.898C38.481 183.38 38.3613 183.934 38.3613 184.537C38.3613 184.81 38.5454 185.05 38.8115 185.123L39.4783 185.307C39.6635 185.358 39.862 185.32 40.015 185.205C40.168 185.09 40.2579 184.911 40.2579 184.72C40.2579 184.18 40.3993 183.895 40.5687 183.74L40.5696 183.739C40.716 183.604 40.9241 183.526 41.3222 183.631C41.7188 183.736 42.0105 183.939 42.2266 184.246C42.4472 184.559 42.5699 184.948 42.5699 185.441C42.5699 185.725 42.5043 185.999 42.3666 186.271M41.1291 190.522L44.4467 191.53C44.7049 191.608 44.8812 191.844 44.8812 192.112V192.773C44.8812 192.966 44.7883 193.148 44.6311 193.263C44.4739 193.378 44.2709 193.411 44.0843 193.354L38.9735 191.786C38.7161 191.707 38.5407 191.471 38.5407 191.205V190.617C38.5407 190.457 38.6041 190.304 38.7172 190.19L41.5051 187.384L41.7798 187.085C42.0705 186.753 42.2591 186.482 42.3665 186.271M48.419 183.729C48.5067 183.714 48.5967 183.718 48.6828 183.74L48.7949 183.77C49.0645 183.841 49.2523 184.082 49.2523 184.358V194.114C49.2523 194.307 49.1594 194.489 49.0022 194.604C48.845 194.719 48.642 194.753 48.4554 194.696L47.7829 194.489C47.5256 194.41 47.3501 194.174 47.3501 193.908V185.896L45.8496 186.15C45.671 186.181 45.4879 186.131 45.3494 186.016C45.2109 185.9 45.1309 185.73 45.1309 185.55V184.812C45.1309 184.517 45.3454 184.264 45.6394 184.213L48.419 183.729Z" fill="white"/>
</g>
<g filter="url(#filter2_d_3128_53164)">
<rect x="64.418" y="184.627" width="82.8978" height="82.8978" rx="9.75268" fill="white"/>
<path opacity="0.289597" fill-rule="evenodd" clip-rule="evenodd" d="M98.8286 200.442L127.438 209.136C128.529 209.468 129.274 210.464 129.274 211.592V235.758C129.274 237.177 128.109 238.327 126.673 238.327C126.414 238.327 126.156 238.289 125.908 238.214L97.2989 229.519C96.2076 229.187 95.4629 228.192 95.4629 227.064V202.897C95.4629 201.478 96.6273 200.328 98.0637 200.328C98.323 200.328 98.5808 200.366 98.8286 200.442Z" fill="#0088B2"/>
<path opacity="0.6" fill-rule="evenodd" clip-rule="evenodd" d="M92.3325 204.553L120.942 213.248C122.033 213.579 122.778 214.575 122.778 215.703V239.87C122.778 241.289 121.613 242.439 120.177 242.439C119.918 242.439 119.66 242.4 119.412 242.325L90.8028 233.63C89.7115 233.299 88.9668 232.303 88.9668 231.175V207.008C88.9668 205.59 90.1312 204.439 91.5676 204.439C91.8269 204.439 92.0847 204.478 92.3325 204.553Z" fill="#0088B2"/>
<path fill-rule="evenodd" clip-rule="evenodd" d="M85.8266 209.69L114.436 218.384C115.527 218.716 116.272 219.712 116.272 220.84V245.016C116.272 246.434 115.107 247.585 113.671 247.585C113.414 247.585 113.158 247.547 112.912 247.473L105.218 245.155V251.708C105.218 252.417 104.636 252.992 103.918 252.992C103.5 252.992 103.108 252.794 102.864 252.46L95.7147 242.69C95.5525 242.469 95.3231 242.304 95.0597 242.22L84.2639 238.783C83.1893 238.441 82.4609 237.453 82.4609 236.338V212.145C82.4609 210.726 83.6254 209.576 85.0618 209.576C85.321 209.576 85.5788 209.614 85.8266 209.69Z" fill="#0088B2"/>
<path d="M89.9279 223.602C88.9261 221.632 90.7698 219.415 92.8944 220.034L100.854 222.354C101.71 222.603 102.377 223.273 102.622 224.129C103.192 226.118 101.315 227.947 99.3371 227.33L91.4229 224.863C90.7743 224.661 90.2354 224.206 89.9279 223.602Z" fill="white"/>
<path d="M105.969 236.719C107.452 235.601 107.068 233.285 105.304 232.712L97.4078 230.145C96.6932 229.913 95.9089 230.045 95.308 230.497C93.8246 231.615 94.2091 233.931 95.9731 234.505L103.869 237.071C104.584 237.303 105.368 237.172 105.969 236.719Z" fill="white"/>
</g>
<g filter="url(#filter3_d_3128_53164)">
<rect x="110.811" y="92.7266" width="107.742" height="107.742" rx="12.6755" fill="white"/>
<path d="M192.123 120.634C193.219 118.807 191.903 116.484 189.774 116.484H172.52C171.557 116.484 170.665 116.989 170.17 117.814L140.058 168.001C137.745 171.857 140.522 176.762 145.018 176.762H151.724C155.894 176.762 159.759 174.573 161.905 170.997L192.123 120.634Z" fill="url(#paint0_linear_3128_53164)" stroke="url(#paint1_linear_3128_53164)" stroke-width="0.608864"/>
<g style="mix-blend-mode:soft-light">
<path d="M192.384 120.79C193.601 118.761 192.14 116.18 189.774 116.18H172.52C171.45 116.18 170.459 116.741 169.909 117.658L139.797 167.845C137.362 171.903 140.285 177.066 145.018 177.066H151.724C156.001 177.066 159.965 174.822 162.166 171.154L192.384 120.79Z" fill="url(#paint2_linear_3128_53164)"/>
</g>
<path fill-rule="evenodd" clip-rule="evenodd" d="M155.515 176.495L152.766 146.621L152.525 147.017V177.063C153.552 176.999 154.556 176.806 155.515 176.495Z" fill="black" fill-opacity="0.5"/>
<path d="M134.564 119.224C134.564 117.711 135.791 116.484 137.304 116.484H149.481C150.995 116.484 152.221 117.711 152.221 119.224V176.762H137.304C135.791 176.762 134.564 175.535 134.564 174.022V119.224Z" fill="url(#paint3_linear_3128_53164)" stroke="url(#paint4_linear_3128_53164)" stroke-width="0.608864"/>
<g style="mix-blend-mode:soft-light">
<path d="M134.26 119.224C134.26 117.543 135.623 116.18 137.304 116.18H149.481C151.163 116.18 152.526 117.543 152.526 119.224V177.066H137.304C135.623 177.066 134.26 175.703 134.26 174.022V119.224Z" fill="url(#paint5_linear_3128_53164)"/>
</g>
<path fill-rule="evenodd" clip-rule="evenodd" d="M152.526 146.617L134.26 120.523V119.224C134.26 117.543 135.623 116.18 137.304 116.18H149.481C151.163 116.18 152.526 117.543 152.526 119.224V146.617Z" fill="black" fill-opacity="0.4"/>
<path d="M135.904 118.328C135.417 117.517 136.002 116.484 136.948 116.484H151.72C155.89 116.484 159.755 118.672 161.901 122.248L192.119 172.612C193.214 174.438 191.899 176.762 189.769 176.762H172.515C171.553 176.762 170.661 176.257 170.166 175.431L135.904 118.328Z" fill="url(#paint6_linear_3128_53164)" stroke="url(#paint7_linear_3128_53164)" stroke-width="0.608864"/>
<g style="mix-blend-mode:soft-light">
<path d="M135.643 118.485C135.034 117.47 135.765 116.18 136.948 116.18H151.72C155.997 116.18 159.961 118.424 162.162 122.092L192.38 172.455C193.597 174.485 192.136 177.066 189.769 177.066H172.515C171.446 177.066 170.455 176.505 169.905 175.588L135.643 118.485Z" fill="url(#paint8_linear_3128_53164)"/>
</g>
</g>
<g filter="url(#filter4_d_3128_53164)">
<rect x="38.3086" y="4" width="83.4048" height="83.4048" rx="9.81233" fill="white"/>
<g clip-path="url(#clip0_3128_53164)">
<path opacity="0.5" fill-rule="evenodd" clip-rule="evenodd" d="M70.0664 25.7644C70.0664 24.1277 71.6847 22.958 73.2832 23.4393L100.627 31.6728C101.67 31.9868 102.382 32.9299 102.382 33.9978V56.8826C102.382 58.5193 100.763 59.6889 99.1649 59.2076L71.8212 50.9742C70.7781 50.6601 70.0664 49.717 70.0664 48.6491V25.7644Z" fill="#FF9ABF"/>
<path opacity="0.8" fill-rule="evenodd" clip-rule="evenodd" d="M63.8525 29.655C63.8525 28.0183 65.4709 26.8486 67.0694 27.3299L94.4131 35.5634C95.4561 35.8775 96.1678 36.8205 96.1678 37.8884V60.7732C96.1678 62.4099 94.5495 63.5796 92.951 63.0983L65.6073 54.8648C64.5643 54.5507 63.8525 53.6077 63.8525 52.5397V29.655Z" fill="#F789B2"/>
<path fill-rule="evenodd" clip-rule="evenodd" d="M57.6377 34.5222C57.6377 32.8855 59.256 31.7158 60.8545 32.1971L88.1982 40.4306C89.2412 40.7447 89.953 41.6877 89.953 42.7556V65.6404C89.953 67.2771 88.3346 68.4468 86.7362 67.9654L59.3925 59.732C58.3494 59.4179 57.6377 58.4749 57.6377 57.4069V34.5222Z" fill="#FF5B97"/>
<mask id="mask0_3128_53164" style="mask-type:luminance" maskUnits="userSpaceOnUse" x="57" y="32" width="33" height="37">
<path fill-rule="evenodd" clip-rule="evenodd" d="M57.6377 34.5222C57.6377 32.8855 59.256 31.7158 60.8545 32.1971L88.1982 40.4306C89.2412 40.7447 89.953 41.6877 89.953 42.7556V65.6404C89.953 67.2771 88.3346 68.4468 86.7362 67.9654L59.3925 59.732C58.3494 59.4179 57.6377 58.4749 57.6377 57.4069V34.5222Z" fill="white"/>
</mask>
<g mask="url(#mask0_3128_53164)">
<g style="mix-blend-mode:multiply">
<path fill-rule="evenodd" clip-rule="evenodd" d="M57.6377 31.2266L89.953 40.957L73.7047 55.1232C72.4916 56.1809 70.5848 55.834 69.8411 54.4205L57.6377 31.2266Z" fill="#F2357A"/>
</g>
<g style="mix-blend-mode:multiply">
<path fill-rule="evenodd" clip-rule="evenodd" d="M57.6377 31.2266L89.953 40.957L73.7047 55.1232C72.4916 56.1809 70.5848 55.834 69.8411 54.4205L57.6377 31.2266Z" fill="#F2357A"/>
</g>
</g>
</g>
</g>
<g filter="url(#filter5_d_3128_53164)">
<rect x="225.908" y="51.6602" width="82.8978" height="82.8978" rx="9.75268" fill="white"/>
<path opacity="0.504232" fill-rule="evenodd" clip-rule="evenodd" d="M259.312 70.9976C259.312 69.2382 261.103 68.0459 262.727 68.7245L266.975 70.5002C267.626 70.772 268.129 71.3091 268.357 71.9758L270.046 76.9124C270.318 77.7071 270.976 78.3085 271.792 78.5081L289.471 82.8305C290.574 83.1002 291.349 84.0885 291.349 85.2237V105.845C291.349 107.502 289.745 108.687 288.16 108.2L261.051 99.8609C260.017 99.5428 259.312 98.5877 259.312 97.5061V70.9976Z" fill="#A2BFFF"/>
<path opacity="0.8" fill-rule="evenodd" clip-rule="evenodd" d="M253.15 75.9253C253.15 74.166 254.942 72.9736 256.565 73.6522L260.814 75.4279C261.465 75.6997 261.967 76.2368 262.196 76.9035L263.885 81.8401C264.157 82.6348 264.815 83.2363 265.631 83.4358L283.309 87.7583C284.412 88.028 285.188 89.0162 285.188 90.1514V110.773C285.188 112.43 283.584 113.615 281.999 113.127L254.89 104.789C253.856 104.471 253.15 103.515 253.15 102.434V75.9253Z" fill="#A0BDFF"/>
<path fill-rule="evenodd" clip-rule="evenodd" d="M246.989 80.1128C246.989 78.3535 248.781 77.1611 250.404 77.8397L254.653 79.6154C255.303 79.8872 255.806 80.4243 256.034 81.091L257.724 86.0276C257.996 86.8223 258.654 87.4238 259.47 87.6233L277.148 91.9458C278.251 92.2155 279.027 93.2037 279.027 94.3389V114.96C279.027 116.618 277.423 117.802 275.838 117.315L248.729 108.976C247.695 108.658 246.989 107.703 246.989 106.621V80.1128Z" fill="#1A47FF"/>
<path fill-rule="evenodd" clip-rule="evenodd" d="M241.17 91.9589C240.507 90.0798 242.233 88.2317 244.154 88.7651L271.535 96.3688C272.362 96.5984 273.009 97.2412 273.245 98.0658L278.403 116.112C278.671 117.052 277.79 117.916 276.856 117.628L248.175 108.806C247.429 108.576 246.836 108.007 246.576 107.271L241.17 91.9589Z" fill="#5287FF"/>
</g>
<g filter="url(#filter6_d_3128_53164)">
<rect x="160.879" y="241.412" width="42.5897" height="42.5897" rx="5.01055" fill="white"/>
<path fill-rule="evenodd" clip-rule="evenodd" d="M177.366 249.792C177.366 248.976 178.149 248.393 178.922 248.633L192.15 252.739C192.655 252.895 192.999 253.366 192.999 253.898V270.771C192.999 271.587 192.216 272.17 191.443 271.93L178.215 267.824C177.711 267.668 177.366 267.197 177.366 266.665V249.792Z" fill="#C79BFF" fill-opacity="0.3"/>
<path opacity="0.8" fill-rule="evenodd" clip-rule="evenodd" d="M174.359 252.218C174.359 251.402 175.142 250.818 175.916 251.058L189.143 255.165C189.648 255.321 189.992 255.792 189.992 256.324V273.197C189.992 274.013 189.209 274.596 188.436 274.356L175.208 270.25C174.704 270.093 174.359 269.623 174.359 269.09V252.218Z" fill="#CCAFEF"/>
<path fill-rule="evenodd" clip-rule="evenodd" d="M171.354 254.644C171.354 253.827 172.136 253.244 172.91 253.484L186.138 257.59C186.642 257.747 186.986 258.217 186.986 258.75V275.622C186.986 276.439 186.204 277.022 185.43 276.782L172.202 272.676C171.698 272.519 171.354 272.049 171.354 271.516V254.644Z" fill="#9D66E1"/>
<path d="M180.372 255.803V263.77C180.372 263.892 180.445 264.003 180.558 264.05C180.67 264.097 180.8 264.071 180.886 263.984L182.069 262.789C182.098 262.761 182.136 262.745 182.176 262.745C182.216 262.745 182.254 262.761 182.282 262.789L183.466 264.75C183.552 264.837 183.682 264.863 183.794 264.816C183.907 264.769 183.98 264.658 183.98 264.535V256.918L180.372 255.803Z" fill="#6129C6"/>
<path fill-rule="evenodd" clip-rule="evenodd" d="M171.354 254.55C171.354 253.899 172.096 253.27 172.857 253.466L174.5 253.978V273.386L172.11 272.641C171.653 272.456 171.354 271.997 171.354 271.577V254.55Z" fill="#6129C6"/>
</g>
<g filter="url(#filter7_d_3128_53164)">
<rect x="234.523" y="184.627" width="65.7859" height="65.7859" rx="7.73952" fill="white"/>
<rect width="24.7477" height="29.4341" rx="1.36895" transform="matrix(0.95882 0.284015 0 1 260.177 195.682)" fill="#81C3F8"/>
<rect width="24.7477" height="29.4341" rx="1.36895" transform="matrix(0.95882 0.284015 0 1 255.613 199.332)" fill="#51ADF6"/>
<path d="M251.051 204.81C251.051 203.804 251.832 203.218 252.797 203.502L266.566 207.547L274.779 216.692V237.478C274.779 238.486 273.996 239.071 273.029 238.785L252.801 232.793C251.834 232.507 251.051 231.457 251.051 230.449V204.81Z" fill="#2196F3"/>
<rect width="9.42493" height="1.88499" rx="0.942493" transform="matrix(0.95882 0.284015 0 1 254.627 217.922)" fill="#BCE1FF"/>
<rect width="11.3099" height="1.88499" rx="0.942493" transform="matrix(0.95882 0.284015 0 1 254.627 221.693)" fill="#BCE1FF"/>
<rect width="9.42493" height="1.88499" rx="0.942493" transform="matrix(0.95882 0.284015 0 1 254.627 225.461)" fill="#BCE1FF"/>
<path d="M266.57 213.004V207.547L274.784 216.673L267.907 214.763C267.117 214.544 266.57 213.824 266.57 213.004Z" fill="#147BCD"/>
</g>
<g filter="url(#filter8_d_3128_53164)">
<rect x="194.979" y="4" width="56.1525" height="56.1525" rx="6.60617" fill="white"/>
<rect width="20.6231" height="24.5285" rx="1.1408" transform="matrix(0.95882 0.284015 0 1 217.037 13.8867)" fill="#90D093"/>
<rect width="20.6231" height="24.5285" rx="1.1408" transform="matrix(0.95882 0.284015 0 1 213.231 16.9316)" fill="#6DC071"/>
<path d="M209.435 21.4924C209.435 20.6537 210.085 20.1661 210.89 20.4023L222.364 23.7731L229.208 31.3937V48.7157C229.208 49.5558 228.555 50.0434 227.75 49.8048L210.893 44.8115C210.088 44.5729 209.435 43.6985 209.435 42.8584V21.4924Z" fill="#4BAF50"/>
<rect width="3.24304" height="1.62152" rx="0.50267" transform="matrix(0.95882 0.284015 0 1 212.546 30.127)" fill="#ADF6B0"/>
<rect width="3.24304" height="1.62152" rx="0.50267" transform="matrix(0.95882 0.284015 0 1 212.546 33.3691)" fill="#ADF6B0"/>
<rect width="3.24304" height="1.62152" rx="0.50267" transform="matrix(0.95882 0.284015 0 1 212.546 36.6113)" fill="#ADF6B0"/>
<rect width="3.24304" height="1.62152" rx="0.50267" transform="matrix(0.95882 0.284015 0 1 212.546 39.8555)" fill="#ADF6B0"/>
<rect width="3.24304" height="1.62152" rx="0.50267" transform="matrix(0.95882 0.284015 0 1 217.212 37.9941)" fill="#ADF6B0"/>
<rect width="3.24304" height="1.62152" rx="0.50267" transform="matrix(0.95882 0.284015 0 1 221.871 39.377)" fill="#ADF6B0"/>
<rect width="3.24304" height="1.62152" rx="0.50267" transform="matrix(0.95882 0.284015 0 1 217.212 34.752)" fill="#ADF6B0"/>
<rect width="3.24304" height="1.62152" rx="0.50267" transform="matrix(0.95882 0.284015 0 1 217.212 41.2363)" fill="#ADF6B0"/>
<rect width="3.24304" height="1.62152" rx="0.50267" transform="matrix(0.95882 0.284015 0 1 221.871 42.6191)" fill="#ADF6B0"/>
<path d="M222.369 28.3213V23.7734L229.214 31.3788L223.483 29.7869C222.825 29.604 222.369 29.0046 222.369 28.3213Z" fill="#2D8C32"/>
</g>
<g filter="url(#filter9_d_3128_53164)">
<rect x="136.545" y="29.6016" width="43.6037" height="43.6037" rx="5.12985" fill="white"/>
<rect width="15.9485" height="18.9686" rx="0.882215" transform="matrix(0.95882 0.284015 0 1 153.64 37.2852)" fill="#FFC166"/>
<rect width="15.9485" height="18.9686" rx="0.882215" transform="matrix(0.95882 0.284015 0 1 150.698 39.6367)" fill="#FFAC33"/>
<path d="M147.755 43.1686C147.755 42.5201 148.258 42.143 148.88 42.3256L157.753 44.9324L163.047 50.8256V64.2212C163.047 64.8709 162.542 65.248 161.919 65.0634L148.883 61.202C148.26 61.0175 147.755 60.3413 147.755 59.6916V43.1686Z" fill="#FF9802"/>
<path d="M154.354 52.3454C155.067 52.5567 155.765 52.9839 156.358 53.573C156.951 54.1621 157.413 54.8865 157.686 55.6548C157.959 56.4231 158.031 57.2006 157.892 57.8891C157.753 58.5776 157.409 59.1462 156.905 59.5229C156.4 59.8996 155.757 60.0675 155.058 60.0054C154.358 59.9433 153.633 59.654 152.974 59.174C152.315 58.694 151.751 58.045 151.355 57.3089C150.959 56.5729 150.747 55.7829 150.747 55.0389L154.354 56.1073L154.354 52.3454Z" fill="#FFDEAD"/>
<path d="M149.544 53.4279C149.544 52.4302 149.924 51.5859 150.6 51.0808C151.277 50.5757 152.194 50.4511 153.151 50.7345V54.4964L149.544 53.4279Z" fill="#FFDEAD"/>
<path d="M157.757 48.4486V44.9316L163.05 50.8131L158.618 49.582C158.109 49.4406 157.757 48.977 157.757 48.4486Z" fill="#D37D17"/>
</g>
<defs>
<filter id="filter0_d_3128_53164" x="0.359986" y="67.8636" width="70.8269" height="70.8269" filterUnits="userSpaceOnUse" color-interpolation-filters="sRGB">
<feFlood flood-opacity="0" result="BackgroundImageFix"/>
<feColorMatrix in="SourceAlpha" type="matrix" values="0 0 0 0 0 0 0 0 0 0 0 0 0 0 0 0 0 0 127 0" result="hardAlpha"/>
<feOffset dy="3.32001"/>
<feGaussianBlur stdDeviation="3.32001"/>
<feComposite in2="hardAlpha" operator="out"/>
<feColorMatrix type="matrix" values="0 0 0 0 0.0862745 0 0 0 0 0.227451 0 0 0 0 0.588235 0 0 0 0.2 0"/>
<feBlend mode="normal" in2="BackgroundImageFix" result="effect1_dropShadow_3128_53164"/>
<feBlend mode="normal" in="SourceGraphic" in2="effect1_dropShadow_3128_53164" result="shape"/>
</filter>
<filter id="filter1_d_3128_53164" x="12.9562" y="153.318" width="70.2223" height="70.2223" filterUnits="userSpaceOnUse" color-interpolation-filters="sRGB">
<feFlood flood-opacity="0" result="BackgroundImageFix"/>
<feColorMatrix in="SourceAlpha" type="matrix" values="0 0 0 0 0 0 0 0 0 0 0 0 0 0 0 0 0 0 127 0" result="hardAlpha"/>
<feOffset dy="3.80265"/>
<feGaussianBlur stdDeviation="3.80265"/>
<feComposite in2="hardAlpha" operator="out"/>
<feColorMatrix type="matrix" values="0 0 0 0 0.0862745 0 0 0 0 0.227451 0 0 0 0 0.588235 0 0 0 0.2 0"/>
<feBlend mode="normal" in2="BackgroundImageFix" result="effect1_dropShadow_3128_53164"/>
<feBlend mode="normal" in="SourceGraphic" in2="effect1_dropShadow_3128_53164" result="shape"/>
</filter>
<filter id="filter2_d_3128_53164" x="56.8127" y="180.824" width="98.1081" height="98.109" filterUnits="userSpaceOnUse" color-interpolation-filters="sRGB">
<feFlood flood-opacity="0" result="BackgroundImageFix"/>
<feColorMatrix in="SourceAlpha" type="matrix" values="0 0 0 0 0 0 0 0 0 0 0 0 0 0 0 0 0 0 127 0" result="hardAlpha"/>
<feOffset dy="3.80265"/>
<feGaussianBlur stdDeviation="3.80265"/>
<feComposite in2="hardAlpha" operator="out"/>
<feColorMatrix type="matrix" values="0 0 0 0 0.0862745 0 0 0 0 0.227451 0 0 0 0 0.588235 0 0 0 0.2 0"/>
<feBlend mode="normal" in2="BackgroundImageFix" result="effect1_dropShadow_3128_53164"/>
<feBlend mode="normal" in="SourceGraphic" in2="effect1_dropShadow_3128_53164" result="shape"/>
</filter>
<filter id="filter3_d_3128_53164" x="103.205" y="88.9239" width="122.953" height="122.953" filterUnits="userSpaceOnUse" color-interpolation-filters="sRGB">
<feFlood flood-opacity="0" result="BackgroundImageFix"/>
<feColorMatrix in="SourceAlpha" type="matrix" values="0 0 0 0 0 0 0 0 0 0 0 0 0 0 0 0 0 0 127 0" result="hardAlpha"/>
<feOffset dy="3.80265"/>
<feGaussianBlur stdDeviation="3.80265"/>
<feComposite in2="hardAlpha" operator="out"/>
<feColorMatrix type="matrix" values="0 0 0 0 0.0862745 0 0 0 0 0.227451 0 0 0 0 0.588235 0 0 0 0.2 0"/>
<feBlend mode="normal" in2="BackgroundImageFix" result="effect1_dropShadow_3128_53164"/>
<feBlend mode="normal" in="SourceGraphic" in2="effect1_dropShadow_3128_53164" result="shape"/>
</filter>
<filter id="filter4_d_3128_53164" x="32.4212" y="1.0563" width="95.1801" height="95.1791" filterUnits="userSpaceOnUse" color-interpolation-filters="sRGB">
<feFlood flood-opacity="0" result="BackgroundImageFix"/>
<feColorMatrix in="SourceAlpha" type="matrix" values="0 0 0 0 0 0 0 0 0 0 0 0 0 0 0 0 0 0 127 0" result="hardAlpha"/>
<feOffset dy="2.9437"/>
<feGaussianBlur stdDeviation="2.9437"/>
<feComposite in2="hardAlpha" operator="out"/>
<feColorMatrix type="matrix" values="0 0 0 0 0.0862745 0 0 0 0 0.227451 0 0 0 0 0.588235 0 0 0 0.2 0"/>
<feBlend mode="normal" in2="BackgroundImageFix" result="effect1_dropShadow_3128_53164"/>
<feBlend mode="normal" in="SourceGraphic" in2="effect1_dropShadow_3128_53164" result="shape"/>
</filter>
<filter id="filter5_d_3128_53164" x="218.303" y="47.8575" width="98.1081" height="98.109" filterUnits="userSpaceOnUse" color-interpolation-filters="sRGB">
<feFlood flood-opacity="0" result="BackgroundImageFix"/>
<feColorMatrix in="SourceAlpha" type="matrix" values="0 0 0 0 0 0 0 0 0 0 0 0 0 0 0 0 0 0 127 0" result="hardAlpha"/>
<feOffset dy="3.80265"/>
<feGaussianBlur stdDeviation="3.80265"/>
<feComposite in2="hardAlpha" operator="out"/>
<feColorMatrix type="matrix" values="0 0 0 0 0.0862745 0 0 0 0 0.227451 0 0 0 0 0.588235 0 0 0 0.2 0"/>
<feBlend mode="normal" in2="BackgroundImageFix" result="effect1_dropShadow_3128_53164"/>
<feBlend mode="normal" in="SourceGraphic" in2="effect1_dropShadow_3128_53164" result="shape"/>
</filter>
<filter id="filter6_d_3128_53164" x="153.274" y="237.609" width="57.8005" height="57.8005" filterUnits="userSpaceOnUse" color-interpolation-filters="sRGB">
<feFlood flood-opacity="0" result="BackgroundImageFix"/>
<feColorMatrix in="SourceAlpha" type="matrix" values="0 0 0 0 0 0 0 0 0 0 0 0 0 0 0 0 0 0 127 0" result="hardAlpha"/>
<feOffset dy="3.80265"/>
<feGaussianBlur stdDeviation="3.80265"/>
<feComposite in2="hardAlpha" operator="out"/>
<feColorMatrix type="matrix" values="0 0 0 0 0.0862745 0 0 0 0 0.227451 0 0 0 0 0.588235 0 0 0 0.2 0"/>
<feBlend mode="normal" in2="BackgroundImageFix" result="effect1_dropShadow_3128_53164"/>
<feBlend mode="normal" in="SourceGraphic" in2="effect1_dropShadow_3128_53164" result="shape"/>
</filter>
<filter id="filter7_d_3128_53164" x="226.918" y="180.824" width="80.9967" height="80.9958" filterUnits="userSpaceOnUse" color-interpolation-filters="sRGB">
<feFlood flood-opacity="0" result="BackgroundImageFix"/>
<feColorMatrix in="SourceAlpha" type="matrix" values="0 0 0 0 0 0 0 0 0 0 0 0 0 0 0 0 0 0 127 0" result="hardAlpha"/>
<feOffset dy="3.80265"/>
<feGaussianBlur stdDeviation="3.80265"/>
<feComposite in2="hardAlpha" operator="out"/>
<feColorMatrix type="matrix" values="0 0 0 0 0.0862745 0 0 0 0 0.227451 0 0 0 0 0.588235 0 0 0 0.2 0"/>
<feBlend mode="normal" in2="BackgroundImageFix" result="effect1_dropShadow_3128_53164"/>
<feBlend mode="normal" in="SourceGraphic" in2="effect1_dropShadow_3128_53164" result="shape"/>
</filter>
<filter id="filter8_d_3128_53164" x="187.373" y="0.197348" width="71.363" height="71.363" filterUnits="userSpaceOnUse" color-interpolation-filters="sRGB">
<feFlood flood-opacity="0" result="BackgroundImageFix"/>
<feColorMatrix in="SourceAlpha" type="matrix" values="0 0 0 0 0 0 0 0 0 0 0 0 0 0 0 0 0 0 127 0" result="hardAlpha"/>
<feOffset dy="3.80265"/>
<feGaussianBlur stdDeviation="3.80265"/>
<feComposite in2="hardAlpha" operator="out"/>
<feColorMatrix type="matrix" values="0 0 0 0 0.0862745 0 0 0 0 0.227451 0 0 0 0 0.588235 0 0 0 0.2 0"/>
<feBlend mode="normal" in2="BackgroundImageFix" result="effect1_dropShadow_3128_53164"/>
<feBlend mode="normal" in="SourceGraphic" in2="effect1_dropShadow_3128_53164" result="shape"/>
</filter>
<filter id="filter9_d_3128_53164" x="128.94" y="25.7989" width="58.8141" height="58.8141" filterUnits="userSpaceOnUse" color-interpolation-filters="sRGB">
<feFlood flood-opacity="0" result="BackgroundImageFix"/>
<feColorMatrix in="SourceAlpha" type="matrix" values="0 0 0 0 0 0 0 0 0 0 0 0 0 0 0 0 0 0 127 0" result="hardAlpha"/>
<feOffset dy="3.80265"/>
<feGaussianBlur stdDeviation="3.80265"/>
<feComposite in2="hardAlpha" operator="out"/>
<feColorMatrix type="matrix" values="0 0 0 0 0.0862745 0 0 0 0 0.227451 0 0 0 0 0.588235 0 0 0 0.2 0"/>
<feBlend mode="normal" in2="BackgroundImageFix" result="effect1_dropShadow_3128_53164"/>
<feBlend mode="normal" in="SourceGraphic" in2="effect1_dropShadow_3128_53164" result="shape"/>
</filter>
<linearGradient id="paint0_linear_3128_53164" x1="135.786" y1="177.066" x2="181.451" y2="114.658" gradientUnits="userSpaceOnUse">
<stop stop-color="#36D0EB"/>
<stop offset="1" stop-color="#507DF8"/>
</linearGradient>
<linearGradient id="paint1_linear_3128_53164" x1="192.106" y1="116.18" x2="151.008" y2="177.066" gradientUnits="userSpaceOnUse">
<stop stop-color="#4F81F8"/>
<stop offset="1" stop-color="#B6E3F3"/>
</linearGradient>
<linearGradient id="paint2_linear_3128_53164" x1="135.786" y1="177.066" x2="181.451" y2="114.658" gradientUnits="userSpaceOnUse">
<stop stop-color="#36D0EB"/>
<stop offset="1" stop-color="#507DF8"/>
</linearGradient>
<linearGradient id="paint3_linear_3128_53164" x1="143.393" y1="116.18" x2="143.393" y2="177.066" gradientUnits="userSpaceOnUse">
<stop stop-color="#D25AB5"/>
<stop offset="1" stop-color="#8969F1"/>
</linearGradient>
<linearGradient id="paint4_linear_3128_53164" x1="143.393" y1="116.18" x2="143.393" y2="177.066" gradientUnits="userSpaceOnUse">
<stop stop-color="#EDC2E8"/>
<stop offset="1" stop-color="#8A69F0"/>
</linearGradient>
<linearGradient id="paint5_linear_3128_53164" x1="143.393" y1="116.18" x2="143.393" y2="177.066" gradientUnits="userSpaceOnUse">
<stop stop-color="#D25AB5"/>
<stop offset="1" stop-color="#8969F1"/>
</linearGradient>
<linearGradient id="paint6_linear_3128_53164" x1="138.826" y1="116.18" x2="176.88" y2="177.066" gradientUnits="userSpaceOnUse">
<stop stop-color="#CF56BB"/>
<stop offset="1" stop-color="#F08657"/>
</linearGradient>
<linearGradient id="paint7_linear_3128_53164" x1="134.26" y1="116.18" x2="189.058" y2="177.066" gradientUnits="userSpaceOnUse">
<stop stop-color="#DE95CF"/>
<stop offset="1" stop-color="#EE8659"/>
</linearGradient>
<linearGradient id="paint8_linear_3128_53164" x1="138.826" y1="116.18" x2="176.88" y2="177.066" gradientUnits="userSpaceOnUse">
<stop stop-color="#CF56BB"/>
<stop offset="1" stop-color="#F08657"/>
</linearGradient>
<clipPath id="clip0_3128_53164">
<rect width="58.874" height="58.874" fill="white" transform="translate(50.5732 16.2656)"/>
</clipPath>
</defs>
</svg>
