<svg width="1001" height="165" viewBox="0 0 1001 165" fill="none" xmlns="http://www.w3.org/2000/svg">
<g clip-path="url(#clip0_421_17983)">
<path d="M0 22.0732H33.9744V45.0438H0V22.0732ZM0 55.5754H33.9744V143.643H0V55.5754ZM53.4481 55.5754H85.0852V69.9217C89.8155 64.0615 94.6014 59.8738 99.4429 57.3583C104.285 54.8429 110.183 53.5852 117.14 53.5852C126.545 53.5852 133.904 56.3632 139.219 61.9193C144.534 67.4754 147.191 76.0582 147.191 87.6679V143.643H113.049V95.2142C113.049 89.6858 112.02 85.7744 109.961 83.4801C107.902 81.1858 105.008 80.0387 101.279 80.0387C97.1613 80.0387 93.8223 81.5866 91.2624 84.6826C88.7025 87.7785 87.4225 93.3345 87.4225 101.351V143.643H53.4481V55.5754ZM203.06 55.5754H219.254V80.2875H203.06V143.643H169.002V80.2875H156.314V55.5754H169.002V51.5949C169.002 48.0014 169.391 44.0487 170.17 39.7365C170.95 35.4243 172.41 31.8999 174.553 29.1634C176.695 26.4268 179.7 24.2154 183.568 22.5293C187.436 20.8431 193.098 20 200.555 20L203.495 20.0491C209.236 20.229 216.91 20.9037 226.516 22.0732L222.76 42.473C218.697 41.8096 215.414 41.4779 212.91 41.4779C209.849 41.4779 207.651 41.9893 206.315 43.0121C204.98 44.0348 204.034 45.6519 203.477 47.8633C203.199 49.0795 203.06 51.6502 203.06 55.5754ZM222.45 99.8581C222.45 86.4239 227.013 75.3534 236.14 66.6461C245.266 57.9388 257.593 53.5852 273.119 53.5852C290.872 53.5852 304.283 58.6989 313.354 68.9266C320.645 77.1639 324.29 87.3085 324.29 99.3605C324.29 112.905 319.768 124.003 310.725 132.655C301.682 141.307 289.174 145.633 273.203 145.633C258.956 145.633 247.437 142.04 238.644 134.853C227.848 125.952 222.45 114.287 222.45 99.8581ZM256.508 99.7752C256.508 107.626 258.108 113.43 261.308 117.19C264.507 120.949 268.528 122.829 273.37 122.829C278.267 122.829 282.288 120.977 285.432 117.273C288.576 113.569 290.148 107.626 290.148 99.4434C290.148 91.8142 288.562 86.1338 285.39 82.4021C282.218 78.6704 278.295 76.8046 273.62 76.8046C268.667 76.8046 264.577 78.698 261.349 82.485C258.122 86.272 256.508 92.0353 256.508 99.7752ZM338.671 55.5754H370.392V68.429C374.955 63.0664 379.56 59.2518 384.207 56.9852C388.854 54.7185 394.461 53.5852 401.027 53.5852C408.095 53.5852 413.688 54.8291 417.806 57.3169C421.924 59.8047 425.291 63.5087 427.906 68.429C433.249 62.6794 438.118 58.7681 442.515 56.6949C446.911 54.6217 452.337 53.5852 458.792 53.5852C468.308 53.5852 475.738 56.3908 481.08 62.0022C486.422 67.6136 489.094 76.3899 489.094 88.3313V143.643H455.036V93.4728C455.036 89.4923 454.257 86.5346 452.698 84.5996C450.417 81.559 447.579 80.0387 444.184 80.0387C440.177 80.0387 436.95 81.4761 434.501 84.3509C432.052 87.2256 430.828 91.8418 430.828 98.1996V143.643H396.77V95.1313C396.77 91.2614 396.547 88.6354 396.102 87.2533C395.379 85.0419 394.127 83.259 392.346 81.9045C390.565 80.5501 388.478 79.8728 386.085 79.8728C382.19 79.8728 378.99 81.3378 376.486 84.2679C373.981 87.198 372.729 92.0077 372.729 98.6971V143.643H338.671V55.5754ZM538.118 84.1021L505.646 80.7021C506.87 75.0631 508.637 70.6266 510.946 67.3924C513.256 64.1583 516.581 61.3526 520.922 58.9754C524.038 57.2616 528.323 55.9348 533.777 54.9949C539.231 54.0551 545.129 53.5852 551.474 53.5852C561.658 53.5852 569.838 54.1518 576.015 55.2852C582.193 56.4185 587.34 58.7819 591.458 62.3754C594.352 64.8632 596.634 68.3875 598.303 72.9484C599.973 77.5095 600.807 81.863 600.807 86.0094V124.902C600.807 129.048 601.072 132.296 601.601 134.646C602.129 136.995 603.284 139.994 605.065 143.643H573.177C571.897 141.377 571.062 139.649 570.673 138.46C570.283 137.272 569.894 135.406 569.504 132.863C565.052 137.12 560.628 140.16 556.232 141.985C550.221 144.417 543.237 145.633 535.279 145.633C524.706 145.633 516.678 143.201 511.197 138.336C505.715 133.471 502.975 127.473 502.975 120.341C502.975 113.651 504.95 108.151 508.901 103.839C512.57 99.8344 519.118 96.7836 528.545 94.6862L546.528 90.9746C550.66 90.0831 553.672 89.3817 555.564 88.8703C559.348 87.8476 563.355 86.5069 567.584 84.8484C567.584 80.7021 566.722 77.7997 564.997 76.1411C563.271 74.4826 560.239 73.6534 555.898 73.6534C550.333 73.6534 546.159 74.5379 543.377 76.307C541.206 77.6891 539.453 80.2874 538.118 84.1021ZM567.584 101.848C564.078 103.092 560.463 104.227 556.738 105.253L552.976 106.243C546.076 108.068 541.707 109.865 539.871 111.634C537.978 113.458 537.032 115.531 537.032 117.853C537.032 120.507 537.965 122.677 539.829 124.363C541.693 126.049 544.434 126.892 548.051 126.892C551.835 126.892 555.355 125.98 558.611 124.156C561.866 122.331 564.176 120.106 565.539 117.48C566.903 114.854 567.584 111.44 567.584 107.239V101.848ZM618.946 55.5754H650.583V69.9217C655.313 64.0615 660.099 59.8738 664.94 57.3583C669.782 54.8429 675.681 53.5852 682.637 53.5852C692.042 53.5852 699.402 56.3632 704.716 61.9193C710.031 67.4754 712.688 76.0582 712.688 87.6679V143.643H678.547V95.2142C678.547 89.6858 677.517 85.7744 675.458 83.4801C673.399 81.1858 670.505 80.0387 666.777 80.0387C662.659 80.0387 659.32 81.5866 656.76 84.6826C654.2 87.7785 652.92 93.3345 652.92 101.351V143.643H618.946V55.5754ZM731.995 22.0732H765.969V45.0438H731.995V22.0732ZM731.995 55.5754H765.969V143.643H731.995V55.5754ZM816.412 84.1021L783.941 80.7021C785.165 75.0631 786.932 70.6266 789.241 67.3924C791.551 64.1583 794.876 61.3526 799.216 58.9754C802.333 57.2616 806.618 55.9348 812.072 54.9949C817.525 54.0551 823.424 53.5852 829.768 53.5852C839.952 53.5852 848.133 54.1518 854.31 55.2852C860.487 56.4185 865.635 58.7819 869.753 62.3754C872.647 64.8632 874.929 68.3875 876.598 72.9484C878.268 77.5095 879.102 81.863 879.102 86.0094V124.902C879.102 129.048 879.367 132.296 879.895 134.646C880.424 136.995 881.579 139.994 883.359 143.643H851.472L850.34 141.556C849.685 140.285 849.227 139.253 848.968 138.46C848.578 137.272 848.189 135.406 847.799 132.863C843.347 137.12 838.923 140.16 834.527 141.985C828.516 144.417 821.532 145.633 813.574 145.633C803.001 145.633 794.973 143.201 789.492 138.336C784.01 133.471 781.269 127.473 781.269 120.341C781.269 113.651 783.245 108.151 787.196 103.839C790.865 99.8344 797.413 96.7836 806.84 94.6862L824.823 90.9746C828.955 90.0831 831.967 89.3817 833.859 88.8703C837.643 87.8476 841.65 86.5069 845.879 84.8484C845.879 80.7021 845.017 77.7997 843.291 76.1411C841.566 74.4826 838.533 73.6534 834.193 73.6534C828.628 73.6534 824.454 74.5379 821.671 76.307C819.501 77.6891 817.748 80.2874 816.412 84.1021ZM845.879 101.848C842.373 103.092 838.758 104.227 835.033 105.253L831.271 106.243C824.37 108.068 820.002 109.865 818.165 111.634C816.273 113.458 815.327 115.531 815.327 117.853C815.327 120.507 816.259 122.677 818.124 124.363C819.988 126.049 822.729 126.892 826.346 126.892C830.13 126.892 833.65 125.98 836.906 124.156C840.161 122.331 842.471 120.106 843.834 117.48C845.197 114.854 845.879 111.44 845.879 107.239V101.848ZM897.24 22.0732H931.966V84.7655L957.342 55.5754H999.164L967.36 86.424L1001 143.643H962.685L944.738 108.317L931.966 120.756V143.643H897.24V22.0732Z" fill="#0098FF"/>
</g>
<defs>
<clipPath id="clip0_421_17983">
<rect width="1001" height="165" fill="white"/>
</clipPath>
</defs>
</svg>
