<svg width="17" height="16" viewBox="0 0 17 16" fill="none" xmlns="http://www.w3.org/2000/svg">
<path fill-rule="evenodd" clip-rule="evenodd" d="M8.5 0C4.08172 0 0.5 3.58172 0.5 8C0.5 12.4183 4.08172 16 8.5 16C12.9183 16 16.5 12.4183 16.5 8C16.5 3.58172 12.9183 0 8.5 0ZM8.66667 3.33333C8.83148 3.33333 8.9926 3.38221 9.12964 3.47377C9.26669 3.56534 9.3735 3.69549 9.43657 3.84776C9.49964 4.00004 9.51614 4.16759 9.48398 4.32924C9.45183 4.49089 9.37247 4.63938 9.25592 4.75592C9.13938 4.87247 8.99089 4.95183 8.82924 4.98399C8.66759 5.01614 8.50004 4.99964 8.34776 4.93656C8.19549 4.87349 8.06535 4.76668 7.97378 4.62964C7.88221 4.4926 7.83333 4.33148 7.83333 4.16667C7.83333 3.94565 7.92113 3.73369 8.07741 3.57741C8.23369 3.42113 8.44565 3.33333 8.66667 3.33333ZM6.66667 6.77777C6.66667 6.50163 6.89052 6.27777 7.16667 6.27777H8.27778C8.55773 6.27777 8.82621 6.38898 9.02417 6.58694C9.22213 6.78489 9.33333 7.05338 9.33333 7.33333V10.7222H10.5C10.7761 10.7222 11 10.9461 11 11.2222C11 11.4984 10.7761 11.7222 10.5 11.7222H7.16667C6.89052 11.7222 6.66667 11.4984 6.66667 11.2222C6.66667 10.9461 6.89052 10.7222 7.16667 10.7222H8.33333V7.33333C8.33333 7.31859 8.32748 7.30446 8.31706 7.29404C8.30664 7.28362 8.29251 7.27777 8.27778 7.27777H7.16667C6.89052 7.27777 6.66667 7.05391 6.66667 6.77777Z" fill="#0098FF"/>
</svg>
