<svg width="16" height="18" viewBox="0 0 16 18" fill="none" xmlns="http://www.w3.org/2000/svg">
<g clip-path="url(#clip0_7775_24321)">
<path d="M8 2C8.27614 2 8.5 2.22386 8.5 2.5V3.5C8.5 3.77614 8.27614 4 8 4C7.72386 4 7.5 3.77614 7.5 3.5V2.5C7.5 2.22386 7.72386 2 8 2Z" fill="#E91E63"/>
<path fill-rule="evenodd" clip-rule="evenodd" d="M5.5 13.831C4.77045 13.4212 4.15668 12.8306 3.71883 12.1143C3.23744 11.3268 2.98829 10.4192 3.00007 9.49628L3.0001 9.49409C3.0227 8.17716 3.55571 6.92045 4.48678 5.98883C5.41785 5.05721 6.67425 4.52346 7.99116 4.50008C7.99707 4.49997 8.00299 4.49997 8.0089 4.50008C9.32531 4.52343 10.5813 5.05677 11.5123 5.98776C12.4433 6.91875 12.9766 8.17472 13 9.49113L13 9.49332C13.0123 10.4168 12.7634 11.3249 12.282 12.1131C11.8441 12.83 11.23 13.421 10.5 13.8311V16.5C10.5 16.8978 10.342 17.2794 10.0607 17.5607C9.77936 17.842 9.39783 18 9 18H7C6.60217 18 6.22064 17.842 5.93934 17.5607C5.65804 17.2794 5.5 16.8978 5.5 16.5V13.831ZM6.5 14V15H9.5V14H6.5ZM6.5 16V16.5C6.5 16.6326 6.55268 16.7598 6.64645 16.8536C6.74022 16.9473 6.86739 17 7 17H9C9.13261 17 9.25978 16.9473 9.35355 16.8536C9.44732 16.7598 9.5 16.6326 9.5 16.5V16H6.5ZM5.19409 6.69572C5.93986 5.94951 6.94549 5.5211 8.00004 5.50009C9.05418 5.52108 10.0595 5.94917 10.8052 6.69487C11.5527 7.44239 11.981 8.45076 12.0001 9.50771C12.0097 10.2424 11.8116 10.9648 11.4286 11.5918C11.0653 12.1866 10.5495 12.6726 9.93569 13H6.06438C5.45091 12.6728 4.93539 12.1872 4.57207 11.5928C4.18911 10.9663 3.99081 10.2444 3.99998 9.51014C4.01841 8.45275 4.4465 7.44377 5.19409 6.69572Z" fill="#E91E63"/>
<path d="M1 9C0.723858 9 0.5 9.22386 0.5 9.5C0.5 9.77614 0.723858 10 1 10H2C2.27614 10 2.5 9.77614 2.5 9.5C2.5 9.22386 2.27614 9 2 9H1Z" fill="#E91E63"/>
<path d="M2.13947 4.15356C2.3308 3.95445 2.64732 3.94814 2.84644 4.13947L3.57977 4.84414C3.77889 5.03547 3.7852 5.35199 3.59386 5.5511C3.40253 5.75022 3.08601 5.75653 2.8869 5.5652L2.15356 4.86053C1.95445 4.6692 1.94814 4.35268 2.13947 4.15356Z" fill="#E91E63"/>
<path d="M14 9C13.7239 9 13.5 9.22386 13.5 9.5C13.5 9.77614 13.7239 10 14 10H15C15.2761 10 15.5 9.77614 15.5 9.5C15.5 9.22386 15.2761 9 15 9H14Z" fill="#E91E63"/>
<path d="M13.8605 4.15356C14.0518 4.35268 14.0455 4.6692 13.8464 4.86053L13.113 5.5652C12.9139 5.75653 12.5974 5.75022 12.4061 5.5511C12.2147 5.35199 12.2211 5.03547 12.4202 4.84414L13.1535 4.13947C13.3526 3.94814 13.6691 3.95445 13.8605 4.15356Z" fill="#E91E63"/>
</g>
<defs>
<clipPath id="clip0_7775_24321">
<rect width="16" height="16" fill="white" transform="translate(0 2)"/>
</clipPath>
</defs>
</svg>
